<svg id="Слой_1" data-name="Слой 1" xmlns="http://www.w3.org/2000/svg" viewBox="10 75 138 80">
    <path class="cls-1"
          fill="#ff2400"
          d="M113.73,124.18c15.68,0,16.08,24.15,1.09,24.15C97,148.33,98.35,124.18,113.73,124.18Zm.5,17.11c6.24,0,6.08-10.06-.45-10.06S106.82,141.29,114.23,141.29Zm15.47-2.93c.7-8.67-4.64-18.17-16-18.17-12.14,0-17.71,11.24-15.34,20.43l-42.28-.35c1.71-9.12-3.54-20.08-15.76-20.08-11.09,0-16.69,9.38-15.76,18l-13-2,2.35-55.14,53.36-.43.62,10.45,2.6,0c15.13.31,27.69,11,35.37,20,17.29.86,35.55,7.67,35.55,7.67l-3.24,18.69ZM52,97.39l-8.14,0,0-8.38-7.32,0,0,8.38-9.18,0,0,7.32,9.1,0,0,9.17,7.59-.28,0-8.85,8.37,0Zm16.85.85h-.53L69,109.39l25.68,1.19C88.8,103.73,80.13,98.24,68.87,98.24ZM70.51,91h-.68C70.76,91,70.91,91,70.51,91Zm2.08-4.81V80.31L84,80.19l.34,7.91S79.91,85.28,72.59,86.22Zm-32.24,38c15.69,0,16.08,24.15,1.09,24.15C23.66,148.33,25,124.18,40.35,124.18Zm.5,17.11c6.25,0,6.08-10.06-.45-10.06S33.44,141.29,40.85,141.29Z"/>
</svg>
